<svg xmlns="http://www.w3.org/2000/svg" viewBox="0 0 1400 64"><defs><clipPath id="sb"><rect x="3" y="20" width="1394" height="24" rx="6"/></clipPath></defs><rect x="3" y="13" width="1394" height="38" rx="10" fill="#2B59D8" stroke="#0B0E14" stroke-width="3"/><rect x="3" y="20" width="1394" height="24" rx="6" fill="#E23636" stroke="#0B0E14" stroke-width="3"/><g clip-path="url(#sb)" stroke="#9E1B1B" stroke-width="2" fill="none"><line x1="18" y1="20" x2="18" y2="44"/><line x1="48" y1="20" x2="48" y2="44"/><line x1="78" y1="20" x2="78" y2="44"/><line x1="108" y1="20" x2="108" y2="44"/><line x1="138" y1="20" x2="138" y2="44"/><line x1="168" y1="20" x2="168" y2="44"/><line x1="198" y1="20" x2="198" y2="44"/><line x1="228" y1="20" x2="228" y2="44"/><line x1="258" y1="20" x2="258" y2="44"/><line x1="288" y1="20" x2="288" y2="44"/><line x1="318" y1="20" x2="318" y2="44"/><line x1="348" y1="20" x2="348" y2="44"/><line x1="378" y1="20" x2="378" y2="44"/><line x1="408" y1="20" x2="408" y2="44"/><line x1="438" y1="20" x2="438" y2="44"/><line x1="468" y1="20" x2="468" y2="44"/><line x1="498" y1="20" x2="498" y2="44"/><line x1="528" y1="20" x2="528" y2="44"/><line x1="558" y1="20" x2="558" y2="44"/><line x1="588" y1="20" x2="588" y2="44"/><line x1="618" y1="20" x2="618" y2="44"/><line x1="648" y1="20" x2="648" y2="44"/><line x1="678" y1="20" x2="678" y2="44"/><line x1="708" y1="20" x2="708" y2="44"/><line x1="738" y1="20" x2="738" y2="44"/><line x1="768" y1="20" x2="768" y2="44"/><line x1="798" y1="20" x2="798" y2="44"/><line x1="828" y1="20" x2="828" y2="44"/><line x1="858" y1="20" x2="858" y2="44"/><line x1="888" y1="20" x2="888" y2="44"/><line x1="918" y1="20" x2="918" y2="44"/><line x1="948" y1="20" x2="948" y2="44"/><line x1="978" y1="20" x2="978" y2="44"/><line x1="1008" y1="20" x2="1008" y2="44"/><line x1="1038" y1="20" x2="1038" y2="44"/><line x1="1068" y1="20" x2="1068" y2="44"/><line x1="1098" y1="20" x2="1098" y2="44"/><line x1="1128" y1="20" x2="1128" y2="44"/><line x1="1158" y1="20" x2="1158" y2="44"/><line x1="1188" y1="20" x2="1188" y2="44"/><line x1="1218" y1="20" x2="1218" y2="44"/><line x1="1248" y1="20" x2="1248" y2="44"/><line x1="1278" y1="20" x2="1278" y2="44"/><line x1="1308" y1="20" x2="1308" y2="44"/><line x1="1338" y1="20" x2="1338" y2="44"/><line x1="1368" y1="20" x2="1368" y2="44"/><line x1="1398" y1="20" x2="1398" y2="44"/><path d="M4 32.0 Q350.0 25.0 700.0 32.0 T1396 32.0"/></g><ellipse cx="700.0" cy="32.0" rx="46" ry="29" fill="#E23636" stroke="#0B0E14" stroke-width="4"/><g transform="translate(676.0 6.0) scale(1.5)"><g stroke="#0B0E14" stroke-width="2.6" fill="none" stroke-linecap="round" stroke-linejoin="round"><path d="M13 12 L7 7 L5 2"/><path d="M19 12 L25 7 L27 2"/><path d="M12.5 15 L5.5 12 L1.5 10"/><path d="M19.5 15 L26.5 12 L30.5 10"/><path d="M12.5 18.5 L5.5 19.5 L1.5 23.5"/><path d="M19.5 18.5 L26.5 19.5 L30.5 23.5"/><path d="M13.5 21.5 L7.5 25.5 L5.5 30.5"/><path d="M18.5 21.5 L24.5 25.5 L26.5 30.5"/></g><ellipse cx="16" cy="19.5" rx="4.6" ry="6.2" fill="#0B0E14"/><circle cx="16" cy="11" r="3.1" fill="#0B0E14"/></g></svg>